<svg id="Layer_5" enable-background="new 0 0 64 64" height="512" viewBox="0 0 64 64" width="512" xmlns="http://www.w3.org/2000/svg"><g><path d="m61 39.551v-6.735c1.161-.414 2-1.514 2-2.816 0-15.99-13.009-29-29-29h-4c-15.991 0-29 13.01-29 29 0 1.302.839 2.402 2 2.816v6.734c-1.657.965-2.438 3.004-1.746 4.855l6.001 16c.583 1.552 2.088 2.595 3.745 2.595.478 0 .947-.084 1.4-.253.469-.177.887-.446 1.254-.781.972.655 2.13 1.034 3.346 1.034.716 0 1.419-.127 2.095-.377 3.102-1.166 4.683-4.633 3.524-7.729l-6.001-16.001c-.875-2.328-3.133-3.892-5.619-3.892-.683 0-1.353.123-1.999.35v-2.535c1.161-.414 2-1.514 2-2.816 0-2.473.489-4.831 1.353-7h4.201l.294-.47c2.947-4.715 8.026-7.53 13.586-7.53h3.132c5.56 0 10.639 2.815 13.586 7.53l.294.47h4.201c.864 2.169 1.353 4.527 1.353 7 0 1.302.839 2.402 2 2.816v2.535c-.644-.228-1.314-.35-1.999-.35-2.486 0-4.744 1.563-5.62 3.892l-6.001 16.002c-1.159 3.096.422 6.563 3.528 7.729.673.249 1.376.376 2.092.376 1.216 0 2.374-.379 3.346-1.034.367.335.787.605 1.259.783.448.167.917.251 1.395.251 1.657 0 3.162-1.043 3.746-2.595l6-16.001c.692-1.849-.088-3.887-1.746-4.853zm-2.339-.515c-.331-.949-.901-1.808-1.661-2.493v-3.543h2v6.004c-.112.001-.226.022-.339.032zm-6.302-28.809-4.257 4.257c-3.732-3.394-8.672-5.484-14.102-5.484h-1v-6h1c7.085 0 13.537 2.747 18.359 7.227zm-21.359-7.227v6h-1c-5.43 0-10.37 2.09-14.102 5.484l-4.257-4.257c4.822-4.48 11.274-7.227 18.359-7.227zm-24 33.542c-.76.685-1.33 1.545-1.661 2.495-.113-.011-.227-.033-.339-.033v-6.004h2zm2.127 23.16-6-15.999c-.386-1.032.143-2.189 1.175-2.578.225-.083.462-.126.706-.122-.001.7.113 1.411.373 2.103l6.001 16.001c.202.537.484 1.028.819 1.474-.141.112-.302.217-.501.292-1.006.377-2.197-.17-2.573-1.171zm1.872-22.701c1.658 0 3.164 1.043 3.747 2.595l6.001 16c.772 2.064-.283 4.377-2.351 5.153-.449.167-.918.251-1.396.251-1.657 0-3.162-1.043-3.745-2.596l-6.001-16c-.772-2.064.285-4.377 2.354-5.154.446-.165.914-.249 1.391-.249zm-1.999-7.001c0 .552-.449 1-1 1h-4c-.551 0-1-.448-1-1 0-7.085 2.747-13.537 7.227-18.359l4.257 4.257c-3.395 3.732-5.484 8.672-5.484 14.102zm39.544-9c-3.354-5.021-8.911-8-14.979-8h-3.132c-6.067 0-11.625 2.979-14.979 8h-2.183c3.215-5.948 9.507-10 16.729-10h4c7.222 0 13.514 4.052 16.727 10zm.972-5.102 4.257-4.257c4.48 4.822 7.227 11.274 7.227 18.359 0 .552-.449 1-1 1h-4c-.551 0-1-.448-1-1 0-5.43-2.089-10.37-5.484-14.102zm-3.908 44.852c-2.071-.777-3.126-3.09-2.354-5.153l6-16.001c.583-1.552 2.089-2.595 3.747-2.595.477 0 .945.084 1.387.248 2.073.778 3.13 3.091 2.358 5.154l-6 16.001c-.584 1.553-2.089 2.596-3.746 2.596-.478 0-.947-.084-1.392-.25zm15.265-17.048-6 16c-.375 1.001-1.583 1.542-2.568 1.174-.202-.076-.364-.182-.506-.294.335-.446.618-.937.819-1.474l6.001-16.002c.259-.692.374-1.402.373-2.102.245-.004.48.038.702.12 1.036.39 1.565 1.547 1.179 2.578z"/><path d="m56.96 28.632 1.996-.117c-.041-.691-.11-1.389-.208-2.071l-1.98.281c.09.629.155 1.27.192 1.907z"/><path d="m56.42 24.844 1.949-.449c-.156-.677-.341-1.353-.55-2.008l-1.905.607c.192.604.363 1.226.506 1.85z"/><path d="m57.103 20.431c-.263-.636-.559-1.271-.877-1.89l-1.777.918c.293.567.565 1.152.807 1.737z"/><path d="m24.842 7.579-.446-1.949c-.672.153-1.348.339-2.011.551l.609 1.904c.61-.194 1.231-.364 1.848-.506z"/><path d="m19.458 9.553c.564-.291 1.149-.563 1.738-.808l-.768-1.848c-.64.267-1.275.562-1.888.878z"/><path d="m28.632 7.04-.116-1.996c-.689.04-1.386.11-2.073.208l.283 1.98c.631-.09 1.273-.155 1.906-.192z"/></g></svg>