<?xml version="1.0" encoding="iso-8859-1"?>
<!-- Generator: Adobe Illustrator 19.0.0, SVG Export Plug-In . SVG Version: 6.00 Build 0)  -->
<svg version="1.1" id="Capa_1" xmlns="http://www.w3.org/2000/svg" xmlns:xlink="http://www.w3.org/1999/xlink" x="0px" y="0px"
	 viewBox="0 0 512 512" style="enable-background:new 0 0 512 512;" xml:space="preserve">
<g>
	<g>
		<path d="M260.283,75.185c-51.02-51.019-134.036-51.019-185.059,0c-12.489,12.488-22.161,27.055-28.745,43.292
			c-1.557,3.838,0.293,8.212,4.132,9.769c3.838,1.555,8.211-0.293,9.769-4.132c5.826-14.367,14.389-27.261,25.451-38.321
			c45.171-45.174,118.671-45.173,163.845,0c21.883,21.883,33.934,50.976,33.934,81.922s-12.051,60.041-33.934,81.922
			c-21.883,21.884-50.976,33.935-81.922,33.935s-60.041-12.051-81.922-33.935c-25.951-25.95-37.908-61.706-32.806-98.099
			c0.574-4.103-2.285-7.895-6.387-8.47c-4.103-0.562-7.894,2.284-8.469,6.387c-5.762,41.098,7.743,81.479,37.054,110.789
			c24.716,24.716,57.576,38.327,92.529,38.327s67.814-13.611,92.529-38.327c24.716-24.716,38.327-57.576,38.327-92.529
			C298.61,132.762,284.998,99.901,260.283,75.185z"/>
	</g>
</g>
<g>
	<g>
		<path d="M504.074,443.685L351.22,290.833c-5.12-5.12-11.926-7.94-19.167-7.94c-5.13,0-10.04,1.422-14.289,4.069l-17.012-17.012
			c13.656-17.75,23.67-38.086,29.323-59.787c1.044-4.008-1.358-8.104-5.367-9.148c-4.005-1.041-8.104,1.359-9.148,5.367
			c-6.812,26.147-20.571,50.126-39.792,69.347c-59.559,59.558-156.467,59.558-216.026,0C30.89,246.875,15,208.515,15,167.713
			c0-40.801,15.889-79.161,44.74-108.012c59.558-59.559,156.467-59.559,216.025,0c31.194,31.193,47.373,74.35,44.389,118.403
			c-0.28,4.133,2.843,7.71,6.976,7.989c4.124,0.277,7.709-2.843,7.99-6.976c3.277-48.375-14.49-95.767-48.748-130.024
			c-65.407-65.406-171.831-65.406-237.238,0C17.449,80.779,0,122.906,0,167.713c0,44.809,17.449,86.936,49.134,118.62
			c32.704,32.703,75.661,49.055,118.619,49.055c36.11,0,72.218-11.558,102.238-34.667l17.015,17.009
			c-6.481,10.451-5.197,24.386,3.865,33.45l34.793,34.792c2.929,2.928,7.678,2.929,10.606-0.001c2.929-2.929,2.929-7.677,0-10.606
			l-34.793-34.791c-4.72-4.721-4.72-12.4,0-17.12l22.015-22.016c2.287-2.286,5.327-3.546,8.56-3.546s6.273,1.26,8.56,3.547
			l76.533,76.532l-39.134,39.135l-22.143-22.143c-2.929-2.928-7.678-2.928-10.606,0c-2.929,2.93-2.929,7.678,0,10.607l98.464,98.464
			c5.285,5.284,12.226,7.926,19.167,7.926s13.882-2.643,19.167-7.926l22.015-22.015
			C514.642,471.451,514.642,454.255,504.074,443.685z M297.104,306.614l-15.613-15.606c1.649-1.523,3.281-3.073,4.882-4.674
			c1.594-1.594,3.143-3.228,4.668-4.881l15.612,15.612L297.104,306.614z M388.618,427.714l39.135-39.135l7.335,7.335l-39.135,39.135
			L388.618,427.714z M408.802,447.897l-2.242-2.242l39.134-39.134l9.698,9.698l-39.134,39.135L408.802,447.897z M493.468,471.413
			l-22.015,22.015c-4.72,4.721-12.4,4.721-17.12,0l-27.466-27.466l39.134-39.135l27.467,27.467
			C498.187,459.013,498.187,466.693,493.468,471.413z"/>
	</g>
</g>
<g>
	<g>
		<path d="M227.281,128.484c-1.857-29.936-25.833-53.91-55.766-55.768c-16.649-1.033-32.482,4.666-44.605,16.061
			c-11.948,11.229-18.802,27.073-18.802,43.467c0,13.785,11.215,25.001,25.001,25.001s25.001-11.215,25.001-25.001
			c0-2.729,1.053-5.16,3.044-7.032c1.988-1.87,4.493-2.766,7.261-2.59c4.651,0.289,8.671,4.309,8.959,8.959
			c0.251,4.054-1.952,7.76-5.613,9.441c-17.622,8.097-29.01,26.048-29.01,45.732c0,13.785,11.215,25.001,25.001,25.001
			c13.785,0,25.001-11.215,25.001-25.001c0.002-0.184,0.04-0.31,0.069-0.381C215.297,175.959,228.819,153.258,227.281,128.484z
			 M186.373,172.829c-5.235,2.407-8.619,7.874-8.619,13.927c0,5.514-4.486,10-10,10s-10-4.486-10-10
			c0-13.843,7.957-26.444,20.272-32.102c9.339-4.29,14.961-13.711,14.322-24.002c-0.754-12.145-10.857-22.249-22.992-23.002
			c-0.545-0.034-1.087-0.052-1.627-0.052c-6.298,0-12.23,2.341-16.848,6.683c-5.011,4.71-7.771,11.089-7.771,17.962
			c0,5.514-4.486,10-10,10s-10-4.486-10-10c0-12.271,5.13-24.13,14.074-32.537c9.073-8.527,20.937-12.785,33.4-12.02
			c22.398,1.391,40.336,19.328,41.726,41.727C213.463,148.019,203.283,165.061,186.373,172.829z"/>
	</g>
</g>
<g>
	<g>
		<path d="M167.753,213.795c-13.785,0-25.001,11.215-25.001,25.001v1.143c0,13.785,11.215,25.001,25.001,25.001
			c13.785,0,25.001-11.215,25.001-25.001v-1.143C192.754,225.01,181.539,213.795,167.753,213.795z M177.753,239.938
			c0,5.514-4.486,10-10,10s-10-4.486-10-10v-1.143c0-5.514,4.486-10,10-10s10,4.486,10,10V239.938z"/>
	</g>
</g>
<g>
</g>
<g>
</g>
<g>
</g>
<g>
</g>
<g>
</g>
<g>
</g>
<g>
</g>
<g>
</g>
<g>
</g>
<g>
</g>
<g>
</g>
<g>
</g>
<g>
</g>
<g>
</g>
<g>
</g>
</svg>
